<?xml version="1.0" encoding="UTF-8" standalone="no"?>
<!DOCTYPE svg PUBLIC "-//W3C//DTD SVG 1.1//EN"
 "http://www.w3.org/Graphics/SVG/1.1/DTD/svg11.dtd">
<!-- Generated by graphviz version 2.40.1 (20161225.0304)
 -->
<!-- Title: dependencies Pages: 1 -->
<svg width="747pt" height="284pt"
 viewBox="0.00 0.00 747.00 284.00" xmlns="http://www.w3.org/2000/svg" xmlns:xlink="http://www.w3.org/1999/xlink">
<g id="graph0" class="graph" transform="scale(1 1) rotate(0) translate(4 280)">
<title>dependencies</title>
<polygon fill="#ffffff" stroke="transparent" points="-4,4 -4,-280 743,-280 743,4 -4,4"/>
<text text-anchor="start" x="348.5091" y="-42.4" font-family="sans-serif" font-weight="bold" font-size="14.00" fill="#000000">Legend</text>
<polygon fill="#ffffb3" stroke="transparent" points="135.5,-10 135.5,-30 155.5,-30 155.5,-10 135.5,-10"/>
<text text-anchor="start" x="159.129" y="-15.4" font-family="sans-serif" font-size="14.00" fill="#000000"> &#160;Declarations</text>
<polygon fill="#8dd3c7" stroke="transparent" points="248.5,-10 248.5,-30 268.5,-30 268.5,-10 248.5,-10"/>
<text text-anchor="start" x="272.2251" y="-15.4" font-family="sans-serif" font-size="14.00" fill="#000000"> &#160;Module</text>
<polygon fill="#80b1d3" stroke="transparent" points="334.5,-10 334.5,-30 354.5,-30 354.5,-10 334.5,-10"/>
<text text-anchor="start" x="358.2812" y="-15.4" font-family="sans-serif" font-size="14.00" fill="#000000"> &#160;Bootstrap</text>
<polygon fill="#fdb462" stroke="transparent" points="431.5,-10 431.5,-30 451.5,-30 451.5,-10 431.5,-10"/>
<text text-anchor="start" x="455.1732" y="-15.4" font-family="sans-serif" font-size="14.00" fill="#000000"> &#160;Providers</text>
<polygon fill="#fb8072" stroke="transparent" points="527.5,-10 527.5,-30 547.5,-30 547.5,-10 527.5,-10"/>
<text text-anchor="start" x="551.2258" y="-15.4" font-family="sans-serif" font-size="14.00" fill="#000000"> &#160;Exports</text>
<g id="clust1" class="cluster">
<title>cluster_NgxListBootstrapModule</title>
<polygon fill="none" stroke="#000000" stroke-dasharray="1,5" points="8,-70 8,-268 731,-268 731,-70 8,-70"/>
</g>
<g id="clust2" class="cluster">
<title>cluster_NgxListBootstrapModule_declarations</title>
<polygon fill="none" stroke="#000000" points="22,-78 22,-130 717,-130 717,-78 22,-78"/>
</g>
<g id="clust7" class="cluster">
<title>cluster_NgxListBootstrapModule_exports</title>
<polygon fill="none" stroke="#000000" points="16,-208 16,-260 723,-260 723,-208 16,-208"/>
</g>
<!-- NgxListBoostrapPaginationComponent -->
<g id="node1" class="node">
<title>NgxListBoostrapPaginationComponent</title>
<polygon fill="#ffffb3" stroke="#000000" points="708.6483,-122 471.3517,-122 471.3517,-86 708.6483,-86 708.6483,-122"/>
<text text-anchor="middle" x="590" y="-99.8" font-family="Times,serif" font-size="14.00" fill="#000000">NgxListBoostrapPaginationComponent</text>
</g>
<!-- NgxListBootstrapModule -->
<g id="node4" class="node">
<title>NgxListBootstrapModule</title>
<polygon fill="#8dd3c7" stroke="#000000" points="432.8725,-187 429.8725,-191 408.8725,-191 405.8725,-187 273.1275,-187 273.1275,-151 432.8725,-151 432.8725,-187"/>
<text text-anchor="middle" x="353" y="-164.8" font-family="Times,serif" font-size="14.00" fill="#000000">NgxListBootstrapModule</text>
</g>
<!-- NgxListBoostrapPaginationComponent&#45;&gt;NgxListBootstrapModule -->
<g id="edge1" class="edge">
<title>NgxListBoostrapPaginationComponent&#45;&gt;NgxListBootstrapModule</title>
<path fill="none" stroke="#000000" d="M630.358,-122.0225C630.358,-139.3734 630.358,-163 630.358,-163 630.358,-163 443.2234,-163 443.2234,-163"/>
<polygon fill="#000000" stroke="#000000" points="443.2235,-159.5001 433.2234,-163 443.2234,-166.5001 443.2235,-159.5001"/>
</g>
<!-- NgxListBoostrapRppComponent -->
<g id="node2" class="node">
<title>NgxListBoostrapRppComponent</title>
<polygon fill="#ffffb3" stroke="#000000" points="453.601,-122 252.399,-122 252.399,-86 453.601,-86 453.601,-122"/>
<text text-anchor="middle" x="353" y="-99.8" font-family="Times,serif" font-size="14.00" fill="#000000">NgxListBoostrapRppComponent</text>
</g>
<!-- NgxListBoostrapRppComponent&#45;&gt;NgxListBootstrapModule -->
<g id="edge2" class="edge">
<title>NgxListBoostrapRppComponent&#45;&gt;NgxListBootstrapModule</title>
<path fill="none" stroke="#000000" d="M353,-122.1061C353,-122.1061 353,-140.991 353,-140.991"/>
<polygon fill="#000000" stroke="#000000" points="349.5001,-140.9909 353,-150.991 356.5001,-140.991 349.5001,-140.9909"/>
</g>
<!-- NgxListBootstrapSortComponent -->
<g id="node3" class="node">
<title>NgxListBootstrapSortComponent</title>
<polygon fill="#ffffb3" stroke="#000000" points="234.4888,-122 29.5112,-122 29.5112,-86 234.4888,-86 234.4888,-122"/>
<text text-anchor="middle" x="132" y="-99.8" font-family="Times,serif" font-size="14.00" fill="#000000">NgxListBootstrapSortComponent</text>
</g>
<!-- NgxListBootstrapSortComponent&#45;&gt;NgxListBootstrapModule -->
<g id="edge3" class="edge">
<title>NgxListBootstrapSortComponent&#45;&gt;NgxListBootstrapModule</title>
<path fill="none" stroke="#000000" d="M164.6648,-122.0225C164.6648,-139.3734 164.6648,-163 164.6648,-163 164.6648,-163 262.8558,-163 262.8558,-163"/>
<polygon fill="#000000" stroke="#000000" points="262.8559,-166.5001 272.8558,-163 262.8558,-159.5001 262.8559,-166.5001"/>
</g>
<!-- NgxListBoostrapPaginationComponent  -->
<g id="node5" class="node">
<title>NgxListBoostrapPaginationComponent </title>
<polygon fill="#fb8072" stroke="#000000" points="714.648,-252 473.352,-252 473.352,-216 714.648,-216 714.648,-252"/>
<text text-anchor="middle" x="594" y="-229.8" font-family="Times,serif" font-size="14.00" fill="#000000">NgxListBoostrapPaginationComponent </text>
</g>
<!-- NgxListBootstrapModule&#45;&gt;NgxListBoostrapPaginationComponent  -->
<g id="edge4" class="edge">
<title>NgxListBootstrapModule&#45;&gt;NgxListBoostrapPaginationComponent </title>
<path fill="none" stroke="#000000" stroke-dasharray="5,2" d="M433.0373,-175C488.3041,-175 551.892,-175 551.892,-175 551.892,-175 551.892,-205.9775 551.892,-205.9775"/>
<polygon fill="#000000" stroke="#000000" points="548.3921,-205.9774 551.892,-215.9775 555.3921,-205.9775 548.3921,-205.9774"/>
</g>
<!-- NgxListBoostrapRppComponent  -->
<g id="node6" class="node">
<title>NgxListBoostrapRppComponent </title>
<polygon fill="#fb8072" stroke="#000000" points="455.1014,-252 250.8986,-252 250.8986,-216 455.1014,-216 455.1014,-252"/>
<text text-anchor="middle" x="353" y="-229.8" font-family="Times,serif" font-size="14.00" fill="#000000">NgxListBoostrapRppComponent </text>
</g>
<!-- NgxListBootstrapModule&#45;&gt;NgxListBoostrapRppComponent  -->
<g id="edge5" class="edge">
<title>NgxListBootstrapModule&#45;&gt;NgxListBoostrapRppComponent </title>
<path fill="none" stroke="#000000" stroke-dasharray="5,2" d="M353,-187.1061C353,-187.1061 353,-205.991 353,-205.991"/>
<polygon fill="#000000" stroke="#000000" points="349.5001,-205.9909 353,-215.991 356.5001,-205.991 349.5001,-205.9909"/>
</g>
<!-- NgxListBootstrapSortComponent  -->
<g id="node7" class="node">
<title>NgxListBootstrapSortComponent </title>
<polygon fill="#fb8072" stroke="#000000" points="232.4894,-252 23.5106,-252 23.5106,-216 232.4894,-216 232.4894,-252"/>
<text text-anchor="middle" x="128" y="-229.8" font-family="Times,serif" font-size="14.00" fill="#000000">NgxListBootstrapSortComponent </text>
</g>
<!-- NgxListBootstrapModule&#45;&gt;NgxListBootstrapSortComponent  -->
<g id="edge6" class="edge">
<title>NgxListBootstrapModule&#45;&gt;NgxListBootstrapSortComponent </title>
<path fill="none" stroke="#000000" stroke-dasharray="5,2" d="M273.0796,-175C197.9913,-175 97.0852,-175 97.0852,-175 97.0852,-175 97.0852,-205.9775 97.0852,-205.9775"/>
<polygon fill="#000000" stroke="#000000" points="93.5853,-205.9774 97.0852,-215.9775 100.5853,-205.9775 93.5853,-205.9774"/>
</g>
</g>
</svg>
